<?xml version="1.0" encoding="UTF-8"?>
<svg id="Layer_1" xmlns="http://www.w3.org/2000/svg" xmlns:xlink="http://www.w3.org/1999/xlink" version="1.1" viewBox="0 0 1461.2 2387.3">
  <!-- Generator: Adobe Illustrator 29.3.1, SVG Export Plug-In . SVG Version: 2.1.0 Build 151)  -->
  <defs>
    <style>
      .st0, .st1, .st2 {
        fill: none;
      }

      .st1 {
        stroke-width: 5.9px;
      }

      .st1, .st2 {
        stroke: #e01212;
        stroke-miterlimit: 10;
      }

      .st2 {
        stroke-width: 6.2px;
      }

      .st3 {
        isolation: isolate;
      }

      .st4 {
        clip-path: url(#clippath);
      }
    </style>
    <clipPath id="clippath">
      <rect class="st0" x="-1.8" y=".3" width="1569" height="2388"/>
    </clipPath>
  </defs>
  <g id="Layer_11" data-name="Layer_1">
    <g id="Layer_11">
      <g class="st4">
        <path d="M-1.8,1.3h1569V-.7H-1.8v2ZM-.8,2388.3V.3h-2v2388H-.8ZM1567.2,2387.3H-1.8v2h1569v-2ZM1566.2.3v2388h2V.3h-2ZM-1.8.3V-.7h-1V.3h1ZM-1.8,2388.3h-1v1h1v-1ZM1567.2,2388.3v1h1v-1h-1ZM1567.2.3h1V-.7h-1V.3Z"/>
      </g>
    </g>
    <image class="st3" width="2930" height="4768" transform="translate(-1.8 .3) scale(.5)" xlink:href="../Documents/ixd behaviours/Zoo map w pages copy/img/wholemap.png"/>
    <path class="st2" d="M256.7,1402.9c0,14.5-12.1,26.2-26.8,26.2s-26.8-11.8-26.8-26.2,12.1-26.2,26.8-26.2,20.7,6.6,24.8,16.1,2.1,6.6,2.1,10.2h-.1Z"/>
    <ellipse class="st2" cx="1208.1" cy="1227.4" rx="36.5" ry="35.7"/>
  </g>
  <g id="Layer_2">
    <g id="giraffe_flamingo">
      <path class="st1" d="M1207.3,1263.3c-22.3,5.7-41.2,8.4-54.8,9.8-29.6,3-44.4,4.5-59-.7-18.9-6.8-21.6-16.5-43.4-21.9-11.1-2.7-22.6-5.6-33.2-.8-13,6-16.9,20.3-29.1,69.3-13.4,53.8-18.1,74.6-31,77.6-5.7,1.3-12.7-1-26.7-5.5-13.6-4.3-15.6-7.4-23.2-7.3-12.2,0-13.4,8.1-25.3,9.3-14.8,1.6-28.7-8.9-37.5-15.5-10.4-7.8-13.3-13.5-22.5-15.4-8.5-1.6-15.5,1.3-17.8,2.2-11.5,4.2-34,3.6-82.8-17.5-44.4,33.9-56.7,37.6-59.7,34.8-3.5-3.5,3.4-18.4,4.8-21.5,6-13.1,12-15.7,10.6-19.7-2.1-6.1-16.4-.9-42.8-6.3-16-3.2-25.4-8.1-34.9-2.5-3.9,2.3-5.3,5-7.8,8-11.2,13.7-33.6,21.4-49.5,19-23.9-3.7-24.4-29.3-50.2-33.2-9.4-1.4-16.5.9-30.5,5.4-13,4.3-37.1,12.2-42.1,29.8-2.5,8.8,2.3,11.5-1,19.9-.9,2.2-4.1,9.2-27.3,20.3-10.7,5.1-23.5,11-42.2,14.3-13.2,2.3-22.6,4-33.8,1.8-20.5-4.1-24.3-17.1-45.8-31.5-30.1-20.2-67.1-24.5-70-18.5-1,2,1.2,6.5,15.4,17.4"/>
    </g>
  </g>
</svg>