<?xml version="1.0" encoding="UTF-8"?>
<svg id="Layer_1" xmlns="http://www.w3.org/2000/svg" version="1.1" viewBox="0 0 800 800">
  <!-- Generator: Adobe Illustrator 29.3.1, SVG Export Plug-In . SVG Version: 2.1.0 Build 151)  -->
  <defs>
    <style>
      .st0 {
        fill: #a9c98d;
      }
    </style>
  </defs>
  <path class="st0" d="M400,44.4c-96.7,0-175,78.3-175,175s114.4,220.6,158.2,272.3c8.9,10.5,24.8,10.5,33.6,0,43.8-51.7,158.2-194.1,158.2-272.3S496.7,44.4,400,44.4ZM400,277.8c-32.2,0-58.3-26.1-58.3-58.3s26.1-58.3,58.3-58.3,58.3,26.1,58.3,58.3-26.1,58.3-58.3,58.3ZM27.9,344.4C11.1,351.1,0,367.5,0,385.6v347.7c0,15.7,15.9,26.5,30.5,20.6l191.7-87.3v-323.7c-12.3-22.2-22.3-43.8-29.5-64.5L27.9,344.4ZM400,544c-19.5,0-38-8.6-50.7-23.6-27.3-32.2-56.3-68.9-82.6-106.6v252.8l266.7,88.9v-341.7c-26.3,37.6-55.3,74.3-82.6,106.6-12.7,15-31.2,23.5-50.7,23.5ZM769.5,268.3l-191.7,87.3v400l194.3-77.7c16.9-6.7,27.9-23.1,27.9-41.3v-347.7c0-15.7-15.9-26.5-30.5-20.6h0Z"/>
</svg>