<?xml version="1.0" encoding="UTF-8"?>
<svg id="Layer_1" xmlns="http://www.w3.org/2000/svg" xmlns:xlink="http://www.w3.org/1999/xlink" version="1.1" viewBox="0 0 1568.9 2384.2">
  <!-- Generator: Adobe Illustrator 29.3.1, SVG Export Plug-In . SVG Version: 2.1.0 Build 151)  -->
  <defs>
    <style>
      .st0 {
        fill: none;
        stroke: #e01212;
        stroke-miterlimit: 10;
        stroke-width: 11.4px;
      }
    </style>
  </defs>
  <image width="1996" height="3039" transform="scale(.8)" xlink:href="Panda-tiger-1.png"/>
  <g id="panda_tiger">
    <ellipse class="st0" cx="1261.8" cy="1616.7" rx="54.9" ry="51.7"/>
    <path class="st0" d="M1208.6,1604c4.2-9.5,11.9-27,21.7-49.2,12.3-28.4,15.5-36.3,23.2-46,16.3-20.5,33.7-24,48.5-33.6,33.2-21.6,39.5-67.6,51.2-158.9,8.9-70.3,7.9-119.3,32.1-126.4,11.9-3.6,19.4,6.2,32.6.8,13-5.2,16.5-18.7,28.9-65.7,14-52.5,16.7-62.2,10.1-67.6-10.4-8.7-25.9,8.6-53.2,4.6-33.8-4.9-33.7-34.9-77.9-53-12.8-5.2-30-7.5-64.1-11.9-30.6-4-46.1-5.9-56-.6-3.5,1.9-14.6,8.4-30.1,9.5-1.2,0-3.4.2-5.9,0-16-.3-26.9-6.8-30.8-8.2-21.2-7.8-51.2,55.7-104.8,79.2-43.4,19-57.4-7.9-96.1,13.5-31.8,17.6-69.2,61.5-67.3,102,.3,7.3,2.4,22.2-5.9,38.1-1.9,3.5-9.9,18.9-23.4,22.7-18,4.9-44.1-10.8-59.1-41.6-85,1.9-170,3.6-255.1,5.6-59.6-15.4-107.2-16.2-139.9-13.8-67.3,4.8-101.8,24.3-134.6,3.6-18-11.3-25.7-31.9-41.4-73-14.1-37.3-33.7-88.7-13.1-104.4,4.5-3.5,17-9.7,49.6,3.6"/>
    <ellipse class="st0" cx="262.6" cy="984.9" rx="53.2" ry="50.1"/>
  </g>
</svg>