<?xml version="1.0" encoding="UTF-8"?>
<svg id="Layer_1" xmlns="http://www.w3.org/2000/svg" version="1.1" viewBox="0 0 800 800">
  <!-- Generator: Adobe Illustrator 29.3.1, SVG Export Plug-In . SVG Version: 2.1.0 Build 151)  -->
  <defs>
    <style>
      .st0 {
        fill: #fff;
        fill-rule: evenodd;
      }
    </style>
  </defs>
  <path class="st0" d="M633.1,269.1c-7.5,7.6-15,14.3-21.8,19.9-6.6-5.4-13.8-12-21-19.5-24.1-25.2-40.3-53.3-40.3-80s28.8-64.6,62.5-64.6,62.5,28,62.5,64.6-16.6,53.8-41.9,79.6ZM725,189.6c0,91.7-112.5,160.4-112.5,160.4-5.6,0-112.5-68.7-112.5-160.4s50.4-114.6,112.5-114.6,112.5,51.3,112.5,114.6ZM125,300c0,41.4,33.6,75,75,75h400c69,0,125,56,125,125s-56,125-125,125h-275v-50h275c41.4,0,75-33.6,75-75s-33.6-75-75-75H200c-69,0-125-56-125-125s56-125,125-125h275v50H200c-41.4,0-75,33.6-75,75ZM208.1,644.1c-7.5,7.6-15,14.3-21.8,19.9-6.6-5.4-13.8-12-21-19.5-24.1-25.2-40.3-53.3-40.3-80s28.8-64.6,62.5-64.6,62.5,28,62.5,64.6-16.6,53.8-41.9,79.6ZM300,564.6c0,91.7-112.5,160.4-112.5,160.4-5.6,0-112.5-68.7-112.5-160.4s50.4-114.6,112.5-114.6,112.5,51.3,112.5,114.6ZM225,562.5c0,20.7-16.8,37.5-37.5,37.5s-37.5-16.8-37.5-37.5,16.8-37.5,37.5-37.5,37.5,16.8,37.5,37.5ZM612.5,225c20.7,0,37.5-16.8,37.5-37.5s-16.8-37.5-37.5-37.5-37.5,16.8-37.5,37.5,16.8,37.5,37.5,37.5Z"/>
</svg>